<svg xmlns="http://www.w3.org/2000/svg" width="110" height="20" viewBox="0 0 110 20"><defs><style>.cls-1{fill:none;}</style></defs><title>logo_black</title><g id="Layer_2" data-name="Layer 2"><g id="Layer_1-2" data-name="Layer 1"><g id="_1_logo_b" data-name=" 1 logo b"><path id="Combined_Shape" data-name="Combined Shape" d="M98.62,19a.47.47,0,0,1-.47-.46h0V1.47A.47.47,0,0,1,98.62,1h10.91a.47.47,0,0,1,.47.47h0v3a.47.47,0,0,1-.47.46h-7v3.1H109a.47.47,0,0,1,.47.47v2.85a.47.47,0,0,1-.47.46h-6.44V15h7a.47.47,0,0,1,.47.47h0v3a.47.47,0,0,1-.47.46H98.62ZM82.09,19a.47.47,0,0,1-.47-.46V1.47A.47.47,0,0,1,82.09,1H89.6a5,5,0,0,1,3.58,1.33,4.5,4.5,0,0,1,1.31,3.3,5,5,0,0,1-2.35,4h0a4.24,4.24,0,0,1,1.37.92,4.71,4.71,0,0,1,1.38,3.51,4.66,4.66,0,0,1-1.52,3.76A5.82,5.82,0,0,1,89.58,19H82.09ZM86,15.4h2.6a1.68,1.68,0,0,0,1.82-1.55,1.3,1.3,0,0,0,0-.34c0-1.25-.66-1.89-2-1.89H86Zm0-7h2.57c.76,0,1.57-.5,1.57-1.93a1.78,1.78,0,0,0-1.7-1.85H86ZM73.12,19a.47.47,0,0,1-.47-.46h0V1.47A.47.47,0,0,1,73.12,1h3.74a.47.47,0,0,1,.46.47h0V18.54a.47.47,0,0,1-.46.46H73.12ZM58.89,19a.48.48,0,0,1-.44-.3L51.69,1.64A.46.46,0,0,1,52,1a.58.58,0,0,1,.18,0h4.09a.48.48,0,0,1,.44.31l4,11,4-11A.47.47,0,0,1,65.05,1h4.09a.47.47,0,0,1,.44.64L62.81,18.7a.46.46,0,0,1-.43.3Z"/><g id="그룹_34" data-name="그룹 34"><path id="Fill_13" data-name="Fill 13" d="M6.26,5.91v4.4l-3-4.4H0v8.72H3.24v-4.4l3,4.4H9.49V5.91Z"/><path id="Fill_16" data-name="Fill 16" d="M41.21,14.63H38V5.91H42c2.73,0,4.12,1,4.12,3a2.43,2.43,0,0,1-1.89,2.49l2.61,3.26H43.14l-1.93-2.72v2.72Zm-.1-6.53V9.82h.69a1.55,1.55,0,0,0,.86-.23A.72.72,0,0,0,42.93,9a.78.78,0,0,0-.26-.64,1.52,1.52,0,0,0-.88-.24Z"/><path id="Fill_18" data-name="Fill 18" d="M30.08,5.91h6.56V8.18H33.29v1h3.09v2.14H33.29v1h3.46v2.27H30.08Z"/><path id="Fill_20" data-name="Fill 20" d="M13.79,14.63h-3.6l3.4-8.72h3.7l3.41,8.72H17.1l-.32-1.14H14.1Zm1.61-6-.76,2.88h1.61L15.49,8.6Z"/><path id="Fill_22" data-name="Fill 22" d="M25.85,5.91l-1.6,5.26h-.09L22.57,5.91H19l3.64,8.72h3.06l3.65-8.72Z"/></g></g><rect class="cls-1" width="110" height="20"/></g></g></svg>