<svg xmlns="http://www.w3.org/2000/svg" width="110" height="20"><defs><style>.cls-1{fill:#fff}</style></defs><g id="Layer_2" data-name="Layer 2"><g id="Layer_1-2" data-name="Layer 1"><g id="_1_logo_w" data-name="1 logo w"><path id="Combined_Shape" data-name="Combined Shape" class="cls-1" d="M98.62 19a.47.47 0 01-.47-.47V1.47a.47.47 0 01.47-.47h10.91a.47.47 0 01.47.47v3a.47.47 0 01-.47.47h-7v3.1H109a.47.47 0 01.47.47v2.84a.47.47 0 01-.47.47h-6.44V15h7a.47.47 0 01.47.47v3a.47.47 0 01-.47.47H98.62zm-16.53 0a.47.47 0 01-.47-.47V1.47a.47.47 0 01.47-.47h7.51a5 5 0 013.58 1.32 4.53 4.53 0 011.31 3.3 5.06 5.06 0 01-2.35 4 4.21 4.21 0 011.37.91 4.72 4.72 0 011.38 3.52 4.63 4.63 0 01-1.52 3.75 5.83 5.83 0 01-3.79 1.2h-7.49zM86 15.4h2.6a1.69 1.69 0 001.82-1.55 1.29 1.29 0 000-.34c0-1.25-.66-1.89-2-1.89H86zm0-7h2.57c.76 0 1.57-.51 1.57-1.93a1.78 1.78 0 00-1.7-1.85H86zM73.12 19a.47.47 0 01-.47-.47V1.47a.47.47 0 01.47-.47h3.74a.47.47 0 01.46.47v17.06a.47.47 0 01-.46.47h-3.74zm-14.23 0a.48.48 0 01-.44-.3L51.69 1.64A.48.48 0 0152 1a.57.57 0 01.18 0h4.09a.46.46 0 01.44.31l4 11 4-11a.45.45 0 01.34-.31h4.09a.47.47 0 01.47.47.51.51 0 010 .17l-6.8 17.06a.46.46 0 01-.43.3z"/><g id="그룹_34" data-name="그룹 34"><path id="Fill_13" data-name="Fill 13" class="cls-1" d="M6.26 5.91v4.4l-3-4.4H0v8.72h3.24v-4.4l3 4.4h3.25V5.91z"/><path id="Fill_16" data-name="Fill 16" class="cls-1" d="M41.21 14.63H38V5.91h4c2.73 0 4.12 1 4.12 3a2.43 2.43 0 01-1.89 2.5l2.61 3.26h-3.7l-1.93-2.72v2.72zm-.1-6.53v1.72h.69a1.55 1.55 0 00.86-.23.74.74 0 00.27-.59.79.79 0 00-.26-.64 1.59 1.59 0 00-.88-.23z"/><path id="Fill_18" data-name="Fill 18" class="cls-1" d="M30.08 5.91h6.56v2.27h-3.35v1h3.09v2.14h-3.09v1h3.46v2.27h-6.67z"/><path id="Fill_20" data-name="Fill 20" class="cls-1" d="M13.79 14.63h-3.6l3.4-8.72h3.7l3.41 8.72h-3.6l-.32-1.14H14.1zm1.61-6l-.76 2.88h1.61l-.76-2.88z"/><path id="Fill_22" data-name="Fill 22" class="cls-1" d="M25.85 5.91l-1.6 5.25h-.09l-1.59-5.25H19l3.64 8.72h3.06l3.65-8.72z"/></g></g><path fill="none" d="M0 0h110v20H0z"/></g></g></svg>