<?xml version="1.0" encoding="utf-8"?><svg width="231" height="175" viewBox="0 0 231 175" xmlns="http://www.w3.org/2000/svg" xmlns:xlink="http://www.w3.org/1999/xlink"><svg width="32" height="32" viewBox="-4 -4 32 32" id="btn_share" x="181" y="82" xmlns="http://www.w3.org/2000/svg"><path fill="none" d="M0 0h24v24H0z"/><path fill="#fff" d="M19 19H5V5h6V3H5a2 2 0 00-2 2v14a2 2 0 002 2h14a2.006 2.006 0 002-2v-6h-2zM14 3v2h3.59l-9 9.007 1.41 1.41 9-9.007V10h2V3z"/></svg><svg width="32" height="32" viewBox="-4 -4 32 32" id="btn_share_black" x="181" y="50" xmlns="http://www.w3.org/2000/svg"><path fill="none" d="M0 0h24v24H0z"/><path d="M19 19H5V5h6V3H5a2 2 0 00-2 2v14a2 2 0 002 2h14a2.006 2.006 0 002-2v-6h-2zM14 3v2h3.59l-9 9.007 1.41 1.41 9-9.007V10h2V3z"/></svg><svg width="63" height="63" viewBox="-4 -4 63 63" id="ico_ar_down" y="56" xmlns="http://www.w3.org/2000/svg"><path fill="none" stroke="#fff" stroke-width="2" d="M16 22l11.5 11L39 22"/></svg><svg width="63" height="63" viewBox="-4 -4 63 63" id="ico_ar_down_black" x="118" xmlns="http://www.w3.org/2000/svg"><path fill="none" stroke="#000" stroke-width="2" d="M16 22l11.5 11L39 22"/></svg><svg width="56" height="56" viewBox="-4 -4 56 56" id="ico_ar_left" x="118" y="63" xmlns="http://www.w3.org/2000/svg"><g opacity=".6"><path fill="rgba(255,255,255,0)" d="M0 0h48v48H0z"/><path fill="#fff" d="M14 24l17-10v20z"/></g></svg><svg width="50" height="50" viewBox="-4 -4 50 50" id="ico_ar_left2" x="56" y="119" xmlns="http://www.w3.org/2000/svg"><defs><style>.fcls-1{fill:#fff}.fcls-2{fill:none}</style></defs><g id="fLayer_2" data-name="Layer 2"><g id="fLayer_1-2" data-name="Layer 1"><path d="M21 1a20 20 0 0120 20 20 20 0 01-20 20A20 20 0 011 21 20 20 0 0121 1z"/><path class="fcls-1" d="M11.39 21l14-8v16z"/><path class="fcls-2" d="M0 0h42v42H0z"/></g></g></svg><svg width="50" height="50" viewBox="-4 -4 50 50" id="ico_ar_left2_gray" x="63" y="56" xmlns="http://www.w3.org/2000/svg"><defs><style>.gcls-1{fill:#999}.gcls-2{fill:#fff}.gcls-3{fill:none}</style></defs><g id="gLayer_2" data-name="Layer 2"><g id="gLayer_1-2" data-name="Layer 1"><path class="gcls-1" d="M21 1a20 20 0 0120 20 20 20 0 01-20 20A20 20 0 011 21 20 20 0 0121 1z"/><path class="gcls-2" d="M11.39 21l14-8v16z"/><path class="gcls-3" d="M0 0h42v42H0z"/></g></g></svg><svg width="56" height="56" viewBox="-4 -4 56 56" id="ico_ar_right" y="119" xmlns="http://www.w3.org/2000/svg"><g opacity=".6"><path fill="rgba(255,255,255,0)" d="M0 0h48v48H0z"/><path fill="#fff" d="M34 24L17 34V14z"/></g></svg><svg width="50" height="50" viewBox="-4 -4 50 50" id="ico_ar_right2" x="106" y="119" xmlns="http://www.w3.org/2000/svg"><defs><style>.icls-1{fill:#fff}.icls-2{fill:none}</style></defs><g id="iLayer_2" data-name="Layer 2"><g id="iLayer_1-2" data-name="Layer 1"><path d="M21 1a20 20 0 0120 20 20 20 0 01-20 20A20 20 0 011 21 20 20 0 0121 1z"/><path class="icls-1" d="M30.61 21l-14 8V13z"/><path class="icls-2" d="M0 0h42v42H0z"/></g></g></svg><svg width="50" height="50" viewBox="-4 -4 50 50" id="ico_ar_right2_gray" x="181" xmlns="http://www.w3.org/2000/svg"><defs><style>.jcls-1{fill:#999}.jcls-2{fill:#fff}.jcls-3{fill:none}</style></defs><g id="jLayer_2" data-name="Layer 2"><g id="jLayer_1-2" data-name="Layer 1"><path class="jcls-1" d="M21 1a20 20 0 0120 20 20 20 0 01-20 20A20 20 0 011 21 20 20 0 0121 1z"/><path class="jcls-2" d="M30.61 21l-14 8V13z"/><path class="jcls-3" d="M0 0h42v42H0z"/></g></g></svg><svg width="118" height="28" viewBox="-4 -4 118 28" id="logo" y="28" xmlns="http://www.w3.org/2000/svg"><defs><style>.kcls-1{fill:#fff}.kcls-2{fill:none}</style></defs><g id="kLayer_2" data-name="Layer 2"><g id="kLayer_1-2" data-name="Layer 1"><g id="k_1_logo_w" data-name="1 logo w"><path id="kCombined_Shape" data-name="Combined Shape" class="kcls-1" d="M98.62 19a.47.47 0 01-.47-.47V1.47a.47.47 0 01.47-.47h10.91a.47.47 0 01.47.47v3a.47.47 0 01-.47.47h-7v3.1H109a.47.47 0 01.47.47v2.84a.47.47 0 01-.47.47h-6.44V15h7a.47.47 0 01.47.47v3a.47.47 0 01-.47.47H98.62zm-16.53 0a.47.47 0 01-.47-.47V1.47a.47.47 0 01.47-.47h7.51a5 5 0 013.58 1.32 4.53 4.53 0 011.31 3.3 5.06 5.06 0 01-2.35 4 4.21 4.21 0 011.37.91 4.72 4.72 0 011.38 3.52 4.63 4.63 0 01-1.52 3.75 5.83 5.83 0 01-3.79 1.2h-7.49zM86 15.4h2.6a1.69 1.69 0 001.82-1.55 1.29 1.29 0 000-.34c0-1.25-.66-1.89-2-1.89H86zm0-7h2.57c.76 0 1.57-.51 1.57-1.93a1.78 1.78 0 00-1.7-1.85H86zM73.12 19a.47.47 0 01-.47-.47V1.47a.47.47 0 01.47-.47h3.74a.47.47 0 01.46.47v17.06a.47.47 0 01-.46.47h-3.74zm-14.23 0a.48.48 0 01-.44-.3L51.69 1.64A.48.48 0 0152 1a.57.57 0 01.18 0h4.09a.46.46 0 01.44.31l4 11 4-11a.45.45 0 01.34-.31h4.09a.47.47 0 01.47.47.51.51 0 010 .17l-6.8 17.06a.46.46 0 01-.43.3z"/><g id="k그룹_34" data-name="그룹 34"><path id="kFill_13" data-name="Fill 13" class="kcls-1" d="M6.26 5.91v4.4l-3-4.4H0v8.72h3.24v-4.4l3 4.4h3.25V5.91z"/><path id="kFill_16" data-name="Fill 16" class="kcls-1" d="M41.21 14.63H38V5.91h4c2.73 0 4.12 1 4.12 3a2.43 2.43 0 01-1.89 2.5l2.61 3.26h-3.7l-1.93-2.72v2.72zm-.1-6.53v1.72h.69a1.55 1.55 0 00.86-.23.74.74 0 00.27-.59.79.79 0 00-.26-.64 1.59 1.59 0 00-.88-.23z"/><path id="kFill_18" data-name="Fill 18" class="kcls-1" d="M30.08 5.91h6.56v2.27h-3.35v1h3.09v2.14h-3.09v1h3.46v2.27h-6.67z"/><path id="kFill_20" data-name="Fill 20" class="kcls-1" d="M13.79 14.63h-3.6l3.4-8.72h3.7l3.41 8.72h-3.6l-.32-1.14H14.1zm1.61-6l-.76 2.88h1.61l-.76-2.88z"/><path id="kFill_22" data-name="Fill 22" class="kcls-1" d="M25.85 5.91l-1.6 5.25h-.09l-1.59-5.25H19l3.64 8.72h3.06l3.65-8.72z"/></g></g><path class="kcls-2" d="M0 0h110v20H0z"/></g></g></svg><svg width="118" height="28" viewBox="-4 -4 118 28" id="logo_black" xmlns="http://www.w3.org/2000/svg"><defs><style>.lcls-1{fill:none}</style></defs><g id="lLayer_2" data-name="Layer 2"><g id="lLayer_1-2" data-name="Layer 1"><g id="l_1_logo_b" data-name="1 logo b"><path id="lCombined_Shape" data-name="Combined Shape" d="M98.62 19a.47.47 0 01-.47-.46V1.47a.47.47 0 01.47-.47h10.91a.47.47 0 01.47.47v3a.47.47 0 01-.47.46h-7v3.1H109a.47.47 0 01.47.47v2.85a.47.47 0 01-.47.46h-6.44V15h7a.47.47 0 01.47.47v3a.47.47 0 01-.47.46H98.62zm-16.53 0a.47.47 0 01-.47-.46V1.47a.47.47 0 01.47-.47h7.51a5 5 0 013.58 1.33 4.5 4.5 0 011.31 3.3 5 5 0 01-2.35 4 4.24 4.24 0 011.37.92 4.71 4.71 0 011.38 3.51 4.66 4.66 0 01-1.52 3.76A5.82 5.82 0 0189.58 19h-7.49zM86 15.4h2.6a1.68 1.68 0 001.82-1.55 1.3 1.3 0 000-.34c0-1.25-.66-1.89-2-1.89H86zm0-7h2.57c.76 0 1.57-.5 1.57-1.93a1.78 1.78 0 00-1.7-1.85H86zM73.12 19a.47.47 0 01-.47-.46V1.47a.47.47 0 01.47-.47h3.74a.47.47 0 01.46.47v17.07a.47.47 0 01-.46.46h-3.74zm-14.23 0a.48.48 0 01-.44-.3L51.69 1.64A.46.46 0 0152 1a.58.58 0 01.18 0h4.09a.48.48 0 01.44.31l4 11 4-11a.47.47 0 01.34-.31h4.09a.47.47 0 01.44.64L62.81 18.7a.46.46 0 01-.43.3z"/><g id="l그룹_34" data-name="그룹 34"><path id="lFill_13" data-name="Fill 13" d="M6.26 5.91v4.4l-3-4.4H0v8.72h3.24v-4.4l3 4.4h3.25V5.91z"/><path id="lFill_16" data-name="Fill 16" d="M41.21 14.63H38V5.91h4c2.73 0 4.12 1 4.12 3a2.43 2.43 0 01-1.89 2.49l2.61 3.26h-3.7l-1.93-2.72v2.72zm-.1-6.53v1.72h.69a1.55 1.55 0 00.86-.23.72.72 0 00.27-.59.78.78 0 00-.26-.64 1.52 1.52 0 00-.88-.24z"/><path id="lFill_18" data-name="Fill 18" d="M30.08 5.91h6.56v2.27h-3.35v1h3.09v2.14h-3.09v1h3.46v2.27h-6.67z"/><path id="lFill_20" data-name="Fill 20" d="M13.79 14.63h-3.6l3.4-8.72h3.7l3.41 8.72h-3.6l-.32-1.14H14.1zm1.61-6l-.76 2.88h1.61l-.76-2.91z"/><path id="lFill_22" data-name="Fill 22" d="M25.85 5.91l-1.6 5.26h-.09l-1.59-5.26H19l3.64 8.72h3.06l3.65-8.72z"/></g></g><path class="lcls-1" d="M0 0h110v20H0z"/></g></g></svg></svg>