<svg xmlns="http://www.w3.org/2000/svg" width="460" height="63.16"><g data-name="Layer 2"><g data-name="Layer 1"><g data-name="8 tit"><path data-name="패스 11533" d="M62.14 17.36v9.8H86.5v-9.8zm9.3-8.68l.56-1.4h6.63V2h-5V0h-6.45v2h-5v5.28h3.3l-3.86 9h6.58l2.38-5.49 2.1 5.49h6.58l-2.93-7.6zM86.5 5.74V.84h-6.44v15.4h6.44v-4.62h2.24V5.74zM68.3 21.42h12v1.68h-12zm21.87-6c0 7.92 2.3 11.2 8.26 11.2 4.17 0 6.55-1.62 7.61-5.32h3.14v5h6.44V.84h-6.44V5h-3.78c-1.26-2.52-3.5-3.64-7-3.64-6 0-8.26 3.28-8.26 11.2zm10.36-.28c0 5.1-.56 6.16-2.1 6.16s-2.1-1.06-2.1-6.16v-2.26c0-5.1.56-6.16 2.1-6.16s2.1 1.06 2.1 6.16zm6.16-2.52c0-.67 0-1.34-.06-2h2.55v5h-2.49zm11.45 5.6v9h24.36v-5.38h-17.92V18.2zM126.4 7c-5.94 0-8.54 1.65-8.54 5s2.6 5 8.54 5 8.54-1.6 8.54-5-2.61-5-8.54-5zm16.1.14V.84h-6.44v18.48h6.44V13h2.24V7.14zM129.62 2V0h-6.44v2h-5v4.44h16.52V2zm-3.22 9.2c2.32 0 2.94.17 2.94.84s-.62.84-2.94.84-2.94-.17-2.94-.84.61-.84 2.94-.84zm52.5-9.8h-6.16v2.32H161V1.4h-6.16v10.92h24.06zM154 13.72v4.34h10.5v2.66h6.44v-2.66h8.82v-4.34zm7.28 8.82v-3.36h-6.44v7.7h24.06v-4.34zM161 7.22h11.76v1.6H161zm28.84 16.1v-.7h17.06v-7.56h-24.08v3.56h17.08v.73h-17.08v7.53h24.08v-3.56zm-7-21.92v8h24.06V6h-17.64V4.82h17.64V1.4zm-.84 8.84v4h25.76v-4zm61 12.08c0-2.6-1.93-4.59-9.1-5v-.93h9.66V11.9h-25.74v4.48h9.66v.92c-7.17.42-9.1 2.41-9.1 5 0 3 2.49 5.12 12.32 5.12s12.3-2.14 12.3-5.1zM230.75 7.78l4 3h8.55l-5.66-4.34h-5l1.15-.84h9V1.4h-24.13v4.2h6.44l-7 5.18h8.54zm6.11 14.54c0 .62-.62 1-6.16 1s-6.16-.37-6.16-1 .61-1 6.16-1 6.16.38 6.16 1zm32.9-19.8V0h-6.44v2.52h-8.82v5.6h6.16l-6.72 8.4h7.7l4.73-5.74 5 5.74h7.81l-5.75-6.72h-6.25l1.37-1.68h10v-5.6zm-16.1 15.12v5.6h9.66v3.92h6.44v-3.92h9.66v-5.6zM307.14.84h-6.44v5h-2.52V2h-5V0h-6.48v2h-5v5.28h3.3l-3.86 9h6.58l2.38-5.49 2.1 5.49h6.58l-2.89-7.56H291l.59-1.4h6.36v4.2h2.8v4.76h6.44zm-25.48 16.52v9.8h25.48v-9.8zm6.16 4.06H301v1.68h-13.18zm29.68 1.9v-.7h17.08v-7.56H310.5v3.56h17.08v.73H310.5v7.53h24.08v-3.56zm17.36-18.2c0-2.63-2.49-4.42-12.32-4.42s-12.32 1.79-12.32 4.42 2.49 4.42 12.32 4.42 12.32-1.78 12.32-4.42zm-25.2 5.12v4h25.76v-4zm19-5.12c0 .53-.31.87-6.16.87s-6.16-.34-6.16-.87.31-.87 6.16-.87 6.2.34 6.2.87zm32.9 8v-.84h8.82V9.07h-17.6v-.81h17.36V5.37h-23.8v6.86h8.82v.84h-9.66v4h25.76v-4zm9.1 9.58c0-2.83-2.49-4.79-12.32-4.79s-12.32 2-12.32 4.79 2.49 4.79 12.32 4.79 12.36-2.01 12.36-4.84zm-.28-18.09V1.4h-24.04v3.16zM364.5 22.7c0 .56-.48.87-6.16.87s-6.16-.31-6.16-.87.47-.87 6.16-.87 6.2.26 6.2.82zM399 .84h-5.2v9.38h-1.4V.84h-5.18v25.48h5.18v-10.5h1.4v10.5h5.2zM379.66 26.6c4.51 0 6.44-3 6.44-8.4v-2c0-5.4-1.93-8.4-6.44-8.4s-6.44 3-6.44 8.4v2c0 5.4 1.93 8.4 6.44 8.4zm2.94-24.36V0h-5.88v2.24h-3.5v5h12.88v-5zm-2.94 19c-1 0-1.4-.67-1.4-3.36v-1.4c0-2.69.42-3.36 1.4-3.36s1.4.67 1.4 3.36v1.4c0 2.73-.42 3.4-1.4 3.4zM76.24 41.46H73l.7-3.78H68l-.7 3.78h-3.55l.7-3.78h-5.69l-.7 3.78H54.4l-1 5.49h3.67L56 52.77h-3.67l-1 5.49H55L54.29 62H60l.7-3.78h3.58L63.55 62h5.69l.7-3.78h3.22l1-5.49H71L72 47h3.22zM62.74 47h3.58l-1.06 5.82h-3.59zm40.66-10.16h-5.18v9.38h-1.4v-9.38h-5.18v25.48h5.18v-10.5h1.4v10.5h5.18zm-19.88 19V37.68h-5.88v24.64l12.88-2v-5.6zm29.68-12.7V41.6h17.64v-4.2h-24.08v9.94h8.82v1.12h-9.66v4.48h25.76v-4.48H122v-1.12h8.82v-4.2zm0 15.4v-4.48h-6.44v8.82h24.08v-4.34zm46.2-21.7h-5.18v9.38h-1.4v-9.38h-5.18v25.48h5.18v-10.5h1.4v10.5h5.18zm-19.88 19V37.68h-5.88v24.64l12.88-2v-5.6zm23.24-2.32v9.38h24.08v-4.16H169.2v-1h17.64V53.5zm6.44-10.78v-1.28h17.64V37.4h-24.08v9.38h24.08v-4.06zm-7.28 5.18v4.48h25.76v-4.5zm42.84 11.62v-.84h18.48v-7.86h-25.48v3.64h18.48v.84h-18.48v7.84h25.48v-3.64zM212.23 45v-3.26h2.05v-4.06h-16.52v4.06h2v4.06l-2.05.14V50l16.52-1.12v-4.06zm11-8.12h-6.43V50h6.44zm-18.56 4.9h2.69v3.52l-2.69.16zm33.94 2.63l4.81 8.15h7.82L245 42.72h-5.34l3.36-5.6h-7.42l-9.6 15.4h7.7zm-12.85 9.27v5.6h9.66v3.92h6.44v-3.96h9.66v-5.6zm27.72 0v9.52h25.76v-9.56zm0-10.78v9.66l12-.84v-4.2l-6.16.45v-1.19h5.88v-3.92zm19.6-6h-5v5.32h-2v5h2v5.32h5zm6.16 0h-5v15.62h5zm-25.76.84v4.2h12v-4.2zm6.16 20h13.44v1.4h-13.44zm30 1.62v-.7h17.08v-7.6H282.6v3.56h17.08v.73H282.6v7.53h24.08v-3.56zM307 41.12c0-2.63-2.5-4.42-12.32-4.42s-12.32 1.79-12.32 4.42 2.49 4.42 12.32 4.42S307 43.76 307 41.12zm-25.2 5.12v4h25.76v-4zm19-5.12c0 .53-.31.87-6.16.87s-6.16-.34-6.16-.87.31-.87 6.16-.87 6.16.34 6.16.87zm24.08 7.2V43h17.64v-5.6h-24.08v16.52h24.08v-5.6zm-7.28 8.4v5.6h25.76v-5.6zm34.4-.78v-3.7h9.52V37.68h-16v5.6h9.52v3.36h-9.44v15.68l16.24-2v-5.6zm19-19.1h-6.44V41h-2v5.6h2v5h-2v5.6h2v5H371zM398.8 45c0-5.27-3.81-8.12-12.32-8.12s-12.32 2.81-12.32 8.12 3.81 8.12 12.32 8.12 12.32-2.9 12.32-8.12zm-9.94 11.76h-4.76v-2.8h-6.44v2.8h-4.06v5.6h25.76v-5.6h-4.06v-2.8h-6.44zM392.64 45c0 2-1.29 2.8-6.16 2.8s-6.16-.84-6.16-2.8 1.29-2.8 6.16-2.8 6.16.84 6.16 2.8zm16 10.19V37.68h-6.24v17.47zm0 6.89v-5.53h-6.24V62z"/><path fill="none" d="M0 0h460v63H0z"/></g></g></g></svg>