<svg xmlns="http://www.w3.org/2000/svg" width="460" height="63.16" viewBox="0 0 460 63.16"><defs><style>.cls-1{fill:none;}</style></defs><title>txt_sec8_title_w460</title><g id="Layer_2" data-name="Layer 2"><g id="Layer_1-2" data-name="Layer 1"><g id="_8_tit" data-name=" 8 tit"><path id="패스_11533" data-name="패스 11533" d="M62.14,17.36v9.8H86.5v-9.8Zm9.3-8.68L72,7.28h6.63V2h-5V0H67.18V2h-5V7.28h3.3l-3.86,9h6.58l2.38-5.49,2.1,5.49h6.58L76.33,8.68ZM86.5,5.74V.84H80.06v15.4H86.5V11.62h2.24V5.74ZM68.3,21.42h12V23.1h-12Zm21.87-6c0,7.92,2.3,11.2,8.26,11.2,4.17,0,6.55-1.62,7.61-5.32h3.14v5h6.44V.84h-6.44V5H105.4c-1.26-2.52-3.5-3.64-7-3.64-6,0-8.26,3.28-8.26,11.2Zm10.36-.28c0,5.1-.56,6.16-2.1,6.16s-2.1-1.06-2.1-6.16V12.88c0-5.1.56-6.16,2.1-6.16s2.1,1.06,2.1,6.16Zm6.16-2.52c0-.67,0-1.34-.06-2h2.55v5h-2.49Zm11.45,5.6v9H142.5V21.84H124.58V18.2ZM126.4,7c-5.94,0-8.54,1.65-8.54,5s2.6,5,8.54,5,8.54-1.6,8.54-5S132.33,7,126.4,7Zm16.1.14V.84h-6.44V19.32h6.44V13h2.24V7.14ZM129.62,2V0h-6.44V2h-5V6.44h16.52V2ZM126.4,11.2c2.32,0,2.94.17,2.94.84s-.62.84-2.94.84-2.94-.17-2.94-.84S124.07,11.2,126.4,11.2Zm52.5-9.8h-6.16V3.72H161V1.4h-6.16V12.32H178.9ZM154,13.72v4.34h10.5v2.66h6.44V18.06h8.82V13.72Zm7.28,8.82V19.18h-6.44v7.7H178.9V22.54ZM161,7.22h11.76v1.6H161Zm28.84,16.1v-.7H206.9V15.06H182.82v3.56H199.9v.73H182.82v7.53H206.9V23.32Zm-7-21.92v8H206.9V6H189.26V4.82H206.9V1.4ZM182,10.24v4h25.76v-4Zm61,12.08c0-2.6-1.93-4.59-9.1-5v-.93h9.66V11.9H217.82v4.48h9.66v.92c-7.17.42-9.1,2.41-9.1,5,0,3,2.49,5.12,12.32,5.12S243,25.28,243,22.32ZM230.75,7.78l4,3h8.55l-5.66-4.34h-5l1.15-.84h9V1.4H218.66V5.6h6.44l-7,5.18h8.54Zm6.11,14.54c0,.62-.62,1-6.16,1s-6.16-.37-6.16-1,.61-1,6.16-1S236.86,21.7,236.86,22.32Zm32.9-19.8V0h-6.44V2.52H254.5v5.6h6.16l-6.72,8.4h7.7l4.73-5.74,5,5.74h7.81L273.43,9.8h-6.25l1.37-1.68h10V2.52Zm-16.1,15.12v5.6h9.66v3.92h6.44V23.24h9.66v-5.6ZM307.14.84H300.7v5h-2.52V2h-5V0H286.7V2h-5V7.28H285l-3.86,9h6.58l2.38-5.49,2.1,5.49h6.58l-2.89-7.56H291l.59-1.4h6.36v4.2h2.8v4.76h6.44ZM281.66,17.36v9.8h25.48v-9.8Zm6.16,4.06H301V23.1H287.82Zm29.68,1.9v-.7h17.08V15.06H310.5v3.56h17.08v.73H310.5v7.53h24.08V23.32Zm17.36-18.2c0-2.63-2.49-4.42-12.32-4.42s-12.32,1.79-12.32,4.42,2.49,4.42,12.32,4.42S334.86,7.76,334.86,5.12Zm-25.2,5.12v4h25.76v-4Zm19-5.12c0,.53-.31.87-6.16.87s-6.16-.34-6.16-.87.31-.87,6.16-.87S328.7,4.59,328.7,5.12Zm32.9,8v-.84h8.82V9.07H352.78V8.26h17.36V5.37h-23.8v6.86h8.82v.84H345.5v4h25.76v-4Zm9.1,9.58c0-2.83-2.49-4.79-12.32-4.79s-12.32,2-12.32,4.79,2.49,4.79,12.32,4.79S370.7,25.48,370.7,22.65Zm-.28-18.09V1.4H346.34V4.56Zm-5.88,18.09c0,.56-.48.87-6.16.87s-6.16-.31-6.16-.87.47-.87,6.16-.87S364.54,22.09,364.54,22.65ZM399,.84H393.8v9.38h-1.4V.84h-5.18V26.32h5.18V15.82h1.4v10.5H399ZM379.66,26.6c4.51,0,6.44-3,6.44-8.4v-2c0-5.4-1.93-8.4-6.44-8.4s-6.44,3-6.44,8.4v2C373.22,23.6,375.15,26.6,379.66,26.6ZM382.6,2.24V0h-5.88V2.24h-3.5v5H386.1v-5Zm-2.94,19c-1,0-1.4-.67-1.4-3.36v-1.4c0-2.69.42-3.36,1.4-3.36s1.4.67,1.4,3.36v1.4C381.06,20.61,380.64,21.28,379.66,21.28ZM76.24,41.46H73l.7-3.78H68l-.7,3.78H63.75l.7-3.78H58.76l-.7,3.78H54.4l-1,5.49h3.67L56,52.77H52.33l-1,5.49H55L54.29,62H60l.7-3.78h3.58L63.55,62h5.69l.7-3.78h3.22l1-5.49H71L72,47h3.22ZM62.74,47h3.58l-1.06,5.82H61.67ZM103.4,36.84H98.22v9.38h-1.4V36.84H91.64V62.32h5.18V51.82h1.4v10.5h5.18Zm-19.88,19V37.68H77.64V62.32l12.88-2v-5.6ZM113.2,43.14V41.6h17.64V37.4H106.76v9.94h8.82v1.12h-9.66v4.48h25.76V48.46H122V47.34h8.82v-4.2Zm0,15.4V54.06h-6.44v8.82h24.08V58.54Zm46.2-21.7h-5.18v9.38h-1.4V36.84h-5.18V62.32h5.18V51.82h1.4v10.5h5.18Zm-19.88,19V37.68h-5.88V62.32l12.88-2v-5.6Zm23.24-2.32v9.38h24.08V58.74H169.2v-1h17.64V53.5Zm6.44-10.78V41.46h17.64V37.4H162.76v9.38h24.08V42.72Zm-7.28,5.18v4.48h25.76V47.9Zm42.84,11.62v-.84h18.48V50.84H197.76v3.64h18.48v.84H197.76v7.84h25.48V59.52ZM212.23,45V41.74h2.05V37.68H197.76v4.06h2V45.8l-2.05.14V50l16.52-1.12V44.82Zm11-8.12H216.8V50h6.44Zm-18.56,4.9h2.69V45.3l-2.69.16Zm33.94,2.63,4.81,8.15h7.82L245,42.72h-5.34l3.36-5.6h-7.42L226,52.52h7.7Zm-12.85,9.27v5.6h9.66v3.92h6.44V59.24h9.66v-5.6Zm27.72,0v9.52h25.76V53.64Zm0-10.78v9.66l12-.84v-4.2l-6.16.45V46.78h5.88V42.86Zm19.6-6h-5v5.32h-2v5h2v5.32h5Zm6.16,0h-5V52.52h5Zm-25.76.84v4.2h12v-4.2Zm6.16,20h13.44v1.4H259.64Zm30,1.62v-.7h17.08V51.06H282.6v3.56h17.08v.73H282.6v7.53h24.08V59.32ZM307,41.12c0-2.63-2.5-4.42-12.32-4.42s-12.32,1.79-12.32,4.42,2.49,4.42,12.32,4.42S307,43.76,307,41.12Zm-25.2,5.12v4h25.76v-4Zm19-5.12c0,.53-.31.87-6.16.87s-6.16-.34-6.16-.87.31-.87,6.16-.87S300.8,40.59,300.8,41.12Zm24.08,7.2V43h17.64V37.4H318.44V53.92h24.08v-5.6Zm-7.28,8.4v5.6h25.76v-5.6ZM352,55.94v-3.7h9.52V37.68h-16v5.6h9.52v3.36H345.6V62.32l16.24-2v-5.6Zm19-19.1h-6.44V41h-2v5.6h2v5h-2v5.6h2v5h6.44ZM398.8,45c0-5.27-3.81-8.12-12.32-8.12S374.16,39.69,374.16,45s3.81,8.12,12.32,8.12S398.8,50.22,398.8,45Zm-9.94,11.76H384.1v-2.8h-6.44v2.8H373.6v5.6h25.76v-5.6H395.3v-2.8h-6.44ZM392.64,45c0,2-1.29,2.8-6.16,2.8s-6.16-.84-6.16-2.8,1.29-2.8,6.16-2.8,6.16.84,6.16,2.8Zm16,10.19V37.68h-6.24V55.15Zm0,6.89V56.55h-6.24V62Z"/><rect class="cls-1" width="460" height="63"/></g></g></g></svg>